<svg xmlns="http://www.w3.org/2000/svg" width="920" height="446" viewBox="0 0 920 446" font-family="-apple-system,BlinkMacSystemFont,Segoe UI,Helvetica,Arial,sans-serif">
<text x="0" y="24" font-size="15" font-weight="700" fill="#E6EDF3">Where single-dispatch fusion wins, and where it does not</text>
<text x="0" y="44" font-size="12.5" fill="#9198A1">Measured speedup against the named baseline. Log scale. Anything left of 1.0 is a loss.</text>
<line x1="336.0" y1="62" x2="336.0" y2="386" stroke="#2A313C" stroke-width="1" stroke-dasharray="2 3"/>
<text x="336.0" y="406" font-size="11.5" text-anchor="middle" fill="#6E7681" >0.1×</text>
<line x1="516.0" y1="62" x2="516.0" y2="386" stroke="#E6EDF3" stroke-width="1.4" />
<text x="516.0" y="406" font-size="11.5" text-anchor="middle" fill="#E6EDF3" font-weight="600">1.0× break-even</text>
<line x1="696.0" y1="62" x2="696.0" y2="386" stroke="#2A313C" stroke-width="1" stroke-dasharray="2 3"/>
<text x="696.0" y="406" font-size="11.5" text-anchor="middle" fill="#6E7681" >10×</text>
<line x1="876.0" y1="62" x2="876.0" y2="386" stroke="#2A313C" stroke-width="1" stroke-dasharray="2 3"/>
<text x="876.0" y="406" font-size="11.5" text-anchor="middle" fill="#6E7681" >100×</text>
<rect x="516.0" y="65" width="355.2" height="16" rx="2" fill="#3FB950" opacity="0.92"/>
<text x="322" y="75" font-size="12.5" text-anchor="end" fill="#E6EDF3">vs per-step PyTorch CUDA</text>
<text x="322" y="88" font-size="11" text-anchor="end" fill="#9198A1">1,500-step financial sim</text>
<text x="877.2" y="76" font-size="12.5" font-weight="600" text-anchor="start" fill="#3FB950">94×</text>
<rect x="516.0" y="99" width="288.4" height="16" rx="2" fill="#3FB950" opacity="0.92"/>
<text x="322" y="109" font-size="12.5" text-anchor="end" fill="#E6EDF3">Phase A in isolation</text>
<text x="322" y="122" font-size="11" text-anchor="end" fill="#9198A1">webgpu-dna, fused vs naive</text>
<text x="810.4" y="110" font-size="12.5" font-weight="600" text-anchor="start" fill="#3FB950">40×</text>
<rect x="516.0" y="133" width="203.5" height="16" rx="2" fill="#3FB950" opacity="0.92"/>
<text x="322" y="143" font-size="12.5" text-anchor="end" fill="#E6EDF3">vs multi-kernel baseline</text>
<text x="322" y="156" font-size="11" text-anchor="end" fill="#9198A1">ADAS, 11 stages, native</text>
<text x="725.5" y="144" font-size="12.5" font-weight="600" text-anchor="start" fill="#3FB950">13.5×</text>
<rect x="516.0" y="167" width="154.3" height="16" rx="2" fill="#3FB950" opacity="0.92"/>
<text x="322" y="177" font-size="12.5" text-anchor="end" fill="#E6EDF3">vs JAX/XLA lax.scan</text>
<text x="322" y="190" font-size="11" text-anchor="end" fill="#9198A1">1,500-step financial sim</text>
<text x="676.3" y="178" font-size="12.5" font-weight="600" text-anchor="start" fill="#3FB950">7.2×</text>
<rect x="516.0" y="201" width="160.6" height="16" rx="2" fill="#3FB950" opacity="0.92"/>
<text x="322" y="211" font-size="12.5" text-anchor="end" fill="#E6EDF3">vs per-step, crowd-sourced</text>
<text x="322" y="224" font-size="11" text-anchor="end" fill="#9198A1">380 runs, 8 GPU vendors</text>
<text x="682.6" y="212" font-size="12.5" font-weight="600" text-anchor="start" fill="#3FB950">7.8×</text>
<rect x="516.0" y="235" width="19.9" height="16" rx="2" fill="#D29922" opacity="0.8"/>
<text x="322" y="245" font-size="12.5" text-anchor="end" fill="#E6EDF3">vs JAX/XLA lax.scan</text>
<text x="322" y="258" font-size="11" text-anchor="end" fill="#9198A1">Acrobot-v1, 500 steps</text>
<text x="541.9" y="246" font-size="12.5" font-weight="600" text-anchor="start" fill="#D29922">1.29×</text>
<rect x="516.0" y="269" width="30.6" height="16" rx="2" fill="#D29922" opacity="0.8"/>
<text x="322" y="279" font-size="12.5" text-anchor="end" fill="#E6EDF3">whole pipeline, like-for-like</text>
<text x="322" y="292" font-size="11" text-anchor="end" fill="#9198A1">webgpu-dna end-to-end</text>
<text x="552.6" y="280" font-size="12.5" font-weight="600" text-anchor="start" fill="#D29922">1.48×</text>
<rect x="421.9" y="303" width="94.1" height="16" rx="2" fill="#DB8C4A" opacity="0.92"/>
<text x="322" y="313" font-size="12.5" text-anchor="end" fill="#E6EDF3">vs batched baseline</text>
<text x="322" y="326" font-size="11" text-anchor="end" fill="#9198A1">380 runs, 8 GPU vendors</text>
<text x="415.9" y="314" font-size="12.5" font-weight="600" text-anchor="end" fill="#DB8C4A">0.3×</text>
<rect x="365.6" y="337" width="150.4" height="16" rx="2" fill="#DB8C4A" opacity="0.92"/>
<text x="322" y="347" font-size="12.5" text-anchor="end" fill="#E6EDF3">vs JAX/XLA</text>
<text x="322" y="360" font-size="11" text-anchor="end" fill="#9198A1">Rastrigin, parallel</text>
<text x="359.6" y="348" font-size="12.5" font-weight="600" text-anchor="end" fill="#DB8C4A">0.146×</text>
<text x="0" y="436" font-size="11" fill="#9198A1">Every figure is measured and committed. The falsified experiments are in the repos next to the ones that worked.</text>
</svg>